<svg width="65" height="65" viewBox="0 0 65 65" fill="none" xmlns="http://www.w3.org/2000/svg">
<path d="M32.5 28.5542C30.5429 28.5542 28.9709 30.1263 28.9709 32.0833C28.9709 34.0404 30.5429 35.6125 32.5 35.6125C34.4571 35.6125 36.0292 34.0404 36.0292 32.0833C36.0292 30.1263 34.4571 28.5542 32.5 28.5542ZM32.5 0C14.79 0 0.416687 14.3733 0.416687 32.0833C0.416687 49.7933 14.79 64.1667 32.5 64.1667C50.21 64.1667 64.5834 49.7933 64.5834 32.0833C64.5834 14.3733 50.21 0 32.5 0ZM39.5263 39.1096L13.25 51.3333L25.4738 25.0571L51.75 12.8333L39.5263 39.1096Z" fill="#383E56"/>
</svg>
